<svg width="94" height="49" viewBox="0 0 94 49" fill="none" xmlns="http://www.w3.org/2000/svg">
<g id="Layer 1">
<g id="Group">
<g id="Group_2">
<path id="Vector" d="M56.7659 48.9505H57.4957V45.0593H56.7659V48.9505ZM52.6754 47.3538C52.9222 46.5935 53.125 45.969 53.2209 45.6038H53.2264C53.3218 45.936 53.5072 46.4651 53.8099 47.3538H52.6754ZM53.9798 47.9608L54.3345 48.9505H55.1058L53.7045 45.0588H52.7938L51.4494 48.9505H52.1693L52.5115 47.9608H53.9803H53.9798ZM47.6802 47.195H48.468C48.997 47.195 49.2283 47.4263 49.2283 47.775C49.2283 48.1756 48.9755 48.3784 48.5084 48.3784H47.6802V47.1955V47.195ZM47.6802 46.6229V45.6323H48.5349C48.9081 45.6323 49.1329 45.8121 49.1329 46.1209C49.1329 46.4296 48.9521 46.6224 48.497 46.6224H47.6797L47.6802 46.6229ZM46.9613 48.9505H48.6423C49.4356 48.9505 49.9747 48.4844 49.9747 47.7914C49.9747 47.2639 49.6035 46.9876 49.3402 46.8927C49.6165 46.7808 49.8568 46.4926 49.8568 46.0489C49.8568 45.5309 49.4916 45.0593 48.5929 45.0593H46.9613V48.951V48.9505ZM41.7148 45.0588V47.3718C41.7148 48.6357 42.4491 49.0009 43.3059 49.0009C44.1627 49.0009 44.907 48.6587 44.907 47.3473V45.0588H44.1772V47.3863C44.1772 48.1576 43.8349 48.4214 43.3159 48.4214C42.8718 48.4214 42.4446 48.1911 42.4446 47.3863V45.0588H41.7148ZM37.2356 45.6543H37.9335C38.7603 45.6543 39.1035 46.2842 39.1035 46.9647C39.1035 47.7645 38.7388 48.355 37.9335 48.355H37.2356V45.6543ZM36.5057 48.9505H37.9665C39.137 48.9505 39.8569 48.1022 39.8569 46.9592C39.8569 45.8161 39.1155 45.0588 37.996 45.0588H36.5057V48.9505ZM14.4821 37.0217H15.4038V30.6367H14.4821V30.4558H17.1278C18.675 30.4558 19.7766 31.8027 19.7766 33.7855C19.7766 35.0274 19.3494 36.07 18.6575 36.6775C18.135 37.1336 17.556 37.202 16.7582 37.202H14.4816V37.0217H14.4821ZM16.2001 30.6367V37.0217H16.7322C17.4915 37.0217 17.9921 36.9447 18.3438 36.4801C18.744 35.9481 18.8763 35.1033 18.8763 33.8994C18.8763 31.5838 18.5626 30.6367 17.0744 30.6367H16.2006H16.2001ZM24.0369 34.9709C24.0369 36.3188 23.2096 37.3149 22.2814 37.3149C21.3532 37.3149 20.5259 36.3188 20.5259 34.9709C20.5259 33.6231 21.3502 32.6374 22.2814 32.6374C23.2126 32.6374 24.0369 33.6231 24.0369 34.9709ZM21.3133 34.9709C21.3133 36.4512 21.4941 37.1536 22.2814 37.1536C23.0687 37.1536 23.2481 36.4512 23.2481 34.9709C23.2481 33.4907 23.0583 32.7893 22.2814 32.7893C21.5046 32.7893 21.3133 33.5002 21.3133 34.9709ZM27.1083 32.6374C27.4525 32.6374 27.7457 32.9127 27.7457 33.3109C27.7457 33.5766 27.5744 33.776 27.3186 33.776C27.0903 33.776 26.9279 33.6166 26.9279 33.3873C26.9279 33.158 27.0818 32.9871 27.2891 32.9871C27.3845 32.9871 27.479 33.0266 27.5744 33.112C27.479 32.8937 27.2981 32.7893 27.0623 32.7893C26.5203 32.7893 26.0092 33.6236 26.0092 34.9515V37.0492H26.6722V37.202H24.6519V37.0492H25.3068V32.8937H24.6519V32.7423H25.9698L26.0092 33.8319C26.2275 33.0451 26.5972 32.6374 27.1078 32.6374M30.0033 37.3149C29.0816 37.3149 28.2488 36.3188 28.2488 34.9809C28.2488 34.2511 28.5231 33.5676 29.0062 33.0841C29.3094 32.7798 29.6601 32.6374 30.0967 32.6374C30.7142 32.6374 31.2063 33.141 31.2063 33.7665C31.2063 34.1362 30.9975 34.3535 30.7137 34.3535C30.4569 34.3535 30.2681 34.1566 30.2681 33.9093C30.2681 33.6621 30.4489 33.4637 30.7047 33.4637C30.8361 33.4637 30.9415 33.5217 31.0459 33.6316C30.9415 33.094 30.5818 32.7888 30.0862 32.7888C29.158 32.7888 29.0341 33.5771 29.0341 35.1693C29.0341 36.5081 29.2345 37.1431 30.0303 37.1431C30.7427 37.1431 31.2732 36.5461 31.3492 35.5005H31.5015C31.4066 36.6595 30.8356 37.3144 30.0028 37.3144M34.422 32.8747C33.815 32.8747 33.2555 33.671 33.2555 34.9609V37.0482H33.9095V37.1995H31.8892V37.0482H32.5531V30.6167H31.8892V30.4563H33.2555V33.9468C33.4643 33.1025 33.9854 32.6364 34.6024 32.6364C35.2193 32.6364 35.7129 33.1685 35.7129 34.1187V37.0492H36.3669V37.2005H34.3466V37.0492H35.0105V33.7959C35.0105 33.178 34.8112 32.8752 34.4215 32.8752M40.1291 35.8347C39.9578 36.7839 39.3993 37.3149 38.6589 37.3149C37.6448 37.3149 36.8354 36.3108 36.8354 34.944C36.8354 34.26 37.0648 33.6631 37.5299 33.141C37.8326 32.7988 38.1938 32.6374 38.5919 32.6374C39.4262 32.6374 40.1086 33.4627 40.1481 34.857H37.6243C37.6143 35.0279 37.6058 35.2002 37.6058 35.3511C37.6058 36.5746 37.928 37.1431 38.7258 37.1431C39.3048 37.1431 39.8059 36.669 39.9678 35.8342H40.1291V35.8347ZM39.3888 34.7057C39.3988 34.5238 39.3988 34.3535 39.3988 34.2021C39.3988 33.2264 39.2179 32.7888 38.5815 32.7888C37.945 32.7888 37.6612 33.3973 37.6338 34.7057H39.3883H39.3888ZM42.615 37.1531C43.0986 37.1531 43.4578 36.7724 43.4578 36.2893C43.4578 35.6823 42.9737 35.4445 42.1594 35.0274C41.4675 34.6687 41.0393 34.4394 41.0393 33.7565C41.0393 33.0736 41.5234 32.6374 42.1399 32.6374C42.4811 32.6374 42.8133 32.8083 43.136 33.1585L43.6386 32.7408H43.6576V34.4019H43.5532C43.3169 33.3778 42.7369 32.7988 42.1399 32.7988C41.7602 32.7988 41.4955 33.0551 41.4955 33.3778C41.4955 33.9168 41.9216 34.0987 42.5476 34.4124C43.4208 34.848 43.8754 35.1892 43.8754 35.9486C43.8754 36.7079 43.3269 37.3149 42.6235 37.3149C42.2063 37.3149 41.8082 37.1066 41.4855 36.6975L41.0488 37.2195H40.9459V35.3786H41.0488C41.3341 36.5271 41.9421 37.1531 42.615 37.1531ZM44.332 32.8932V32.7418H45.0519V31.3845C45.3841 31.3286 45.6114 31.1287 45.7533 30.7985V32.7418H46.5881V32.8932H45.7533V36.5561C45.7533 36.9447 45.8123 37.1246 46.086 37.1246C46.4457 37.1246 46.7125 36.7814 46.7584 36.1469H46.9113C46.8534 36.9153 46.5231 37.3164 45.9631 37.3164C45.3551 37.3164 45.0519 36.9917 45.0519 36.3572V32.8932H44.332ZM50.763 35.8342C50.5922 36.7834 50.0331 37.3144 49.2938 37.3144C48.2786 37.3144 47.4703 36.3103 47.4703 34.9435C47.4703 34.2595 47.6986 33.6626 48.1637 33.1405C48.4675 32.7983 48.8297 32.6369 49.2268 32.6369C50.0616 32.6369 50.7435 33.4622 50.7825 34.8565H48.2597C48.2497 35.0274 48.2412 35.1997 48.2412 35.3506C48.2412 36.5741 48.5629 37.1426 49.3602 37.1426C49.9387 37.1426 50.4413 36.6685 50.6017 35.8337H50.763V35.8342ZM50.0241 34.7052C50.0331 34.5233 50.0331 34.353 50.0331 34.2016C50.0331 33.2259 49.8528 32.7883 49.2168 32.7883C48.5809 32.7883 48.2981 33.3968 48.2677 34.7052H50.0241ZM53.8384 32.6369C54.1806 32.6369 54.4733 32.9122 54.4733 33.3104C54.4733 33.5761 54.3025 33.7755 54.0457 33.7755C53.8184 33.7755 53.658 33.6161 53.658 33.3868C53.658 33.1575 53.8094 32.9866 54.0172 32.9866C54.1141 32.9866 54.2071 33.0261 54.3025 33.1115C54.2071 32.8932 54.0257 32.7888 53.7914 32.7888C53.2494 32.7888 52.7378 33.6231 52.7378 34.951V37.0487H53.4007V37.2015H51.3805V37.0487H52.0354V32.8932H51.3805V32.7418H52.6984L52.7378 33.8314C52.9551 33.0446 53.3258 32.6369 53.8384 32.6369ZM62.8172 30.3514L62.0194 33.4053H61.8875C61.9045 33.2054 61.9045 33.0056 61.9045 32.7883C61.9045 31.2991 61.4873 30.5213 60.748 30.5213C60.2279 30.5213 59.7328 30.9594 59.2687 31.8206C58.4994 33.2349 58.1297 34.5718 58.1297 35.7388C58.1297 36.6595 58.5388 37.1331 59.2952 37.1331C60.2159 37.1331 60.9773 36.3572 61.6027 34.7721L61.7726 34.8291C61.1186 36.4791 60.2839 37.3164 59.3452 37.3164C58.1866 37.3164 57.3828 36.3268 57.3828 34.885C57.3828 34.1087 57.6191 33.2544 58.1017 32.4096C58.8691 31.0628 59.8947 30.3519 60.7395 30.3519C61.1191 30.3519 61.4034 30.5133 61.7066 30.835C61.8765 31.0158 61.9614 31.1577 62.0963 31.1577C62.3221 31.1577 62.5034 30.8625 62.6548 30.3519H62.8172V30.3514ZM65.929 34.1921C65.929 34.7901 65.7587 35.3961 65.4354 35.9566C64.9139 36.8388 64.221 37.3139 63.605 37.3139C62.989 37.3139 62.409 36.648 62.409 35.6813C62.409 35.0079 62.6568 34.2605 63.1299 33.6041C63.5755 32.9776 64.2215 32.6374 64.763 32.6374C65.417 32.6374 65.9285 33.2334 65.9285 34.1921M64.0127 33.3014C63.575 33.9848 63.3972 34.6102 63.2238 35.1513C63.0445 35.7383 62.9701 36.2114 62.9701 36.4871C62.9701 36.8963 63.2168 37.1431 63.5755 37.1431C63.8883 37.1431 64.145 36.9432 64.3733 36.5361C65.1132 35.1982 65.3875 34.0392 65.3875 33.4732C65.3875 33.0356 65.1602 32.7893 64.772 32.7893C64.5052 32.7893 64.232 32.9697 64.0127 33.3019M66.8567 36.9053C66.8567 37.0566 66.9431 37.1521 67.0551 37.1521C67.3983 37.1521 67.8144 36.5736 68.4134 35.4455L68.5463 35.5115C67.9393 36.6885 67.4632 37.3144 67.075 37.3144C66.7333 37.3144 66.4396 36.9338 66.4396 36.3468C66.4396 36.08 66.535 35.6533 66.7333 35.0664L68.0142 31.2521C68.0812 31.0623 68.1186 30.9294 68.1186 30.835C68.1186 30.6641 68.0042 30.6167 67.68 30.6167H67.3023L67.3498 30.4563H68.9629L66.9426 36.5166C66.8837 36.678 66.8562 36.8119 66.8562 36.9053M69.7123 36.9053C69.7123 37.0566 69.7977 37.1521 69.9106 37.1521C70.2528 37.1521 70.669 36.5736 71.2679 35.4455L71.4008 35.5115C70.7938 36.6885 70.3183 37.3144 69.9306 37.3144C69.5879 37.3144 69.2931 36.9338 69.2931 36.3468C69.2931 36.08 69.3876 35.6533 69.5879 35.0664L70.8688 31.2521C70.9357 31.0623 70.9722 30.9294 70.9722 30.835C70.9722 30.6641 70.8588 30.6167 70.5366 30.6167H70.1569L70.2053 30.4563H71.817L69.7977 36.5166C69.7387 36.678 69.7123 36.8119 69.7123 36.9053ZM75.0992 35.426C74.4547 36.688 73.7903 37.3149 73.0119 37.3149C72.2821 37.3149 71.7895 36.7264 71.7895 35.7962C71.7895 35.1892 71.9883 34.5543 72.3865 33.9843C73.0119 33.0826 73.7243 32.6369 74.2079 32.6369C74.7305 32.6369 75.1286 33.0361 75.1286 33.5487C75.1286 34.364 74.2549 35.0469 72.6138 35.2847C72.4624 35.7113 72.3865 36.0705 72.3865 36.3652C72.3865 36.8953 72.5948 37.1536 73.0414 37.1536C73.7243 37.1536 74.3398 36.5556 74.9593 35.3691L75.0996 35.426H75.0992ZM74.6261 33.3104C74.6261 32.9682 74.4547 32.7888 74.2079 32.7888C73.6574 32.7888 73.1458 33.5661 72.6607 35.1238C73.8857 34.9709 74.6261 34.1451 74.6261 33.3109M78.7335 35.4265C78.0971 36.6785 77.3867 37.3144 76.7033 37.3144C76.0199 37.3144 75.5458 36.6885 75.5458 35.7198C75.5458 35.1798 75.6971 34.6202 75.9904 34.0987C76.5324 33.151 77.3103 32.6384 77.9647 32.6384C78.5332 32.6384 78.8654 32.9786 78.8654 33.5477C78.8654 33.9458 78.6087 34.2401 78.2694 34.2401C78.0501 34.2401 77.8988 34.0787 77.8988 33.8429C77.8988 33.6071 78.0311 33.4527 78.3164 33.3213C78.4688 33.2449 78.5532 33.2179 78.5532 33.113C78.5532 32.9517 78.3439 32.7903 78.0137 32.7903C77.6834 32.7903 77.3682 32.9707 77.1294 33.3109C76.7318 33.8794 76.5049 34.6202 76.2682 35.5315C76.1712 35.8926 76.1343 36.1769 76.1343 36.3852C76.1343 36.8868 76.3416 37.1531 76.7313 37.1531C77.3282 37.1531 77.9822 36.5571 78.5902 35.3706L78.733 35.4275L78.7335 35.4265ZM81.1714 32.7418H82.1007L82.0447 32.9402H81.1065L79.9095 36.5176C79.8526 36.679 79.8241 36.8109 79.8241 36.9058C79.8241 37.0581 79.9095 37.1531 80.0249 37.1531C80.3641 37.1531 80.7823 36.5746 81.3793 35.4445L81.5052 35.5125C80.8862 36.7084 80.4506 37.3144 80.0044 37.3144C79.6722 37.3144 79.388 36.9722 79.388 36.4796C79.388 36.2324 79.4924 35.7473 79.7202 35.0654L80.4316 32.9397H79.6438L79.7007 32.7413H80.4885L81.114 30.9009H81.7874L81.171 32.7413L81.1714 32.7418ZM83.3441 32.6389C83.6938 32.6389 83.9421 32.9702 83.9421 33.5571C83.9421 34.0392 83.7327 34.5823 83.411 35.2657C83.0688 35.9856 82.7756 36.4607 82.7756 36.8119C82.7756 37.0392 82.8605 37.1541 83.0204 37.1541C83.3821 37.1541 83.8846 36.5471 84.3867 35.3316L84.5301 35.3896C84.006 36.6785 83.4585 37.3144 83.0593 37.3144C82.7006 37.3144 82.3954 36.8973 82.3954 36.2993C82.3954 35.7683 82.6227 35.3316 82.861 34.8381C83.2966 33.9378 83.6089 33.3853 83.6089 33.0656C83.6089 32.8947 83.5054 32.7793 83.3621 32.7793C83.0009 32.7793 82.6157 33.2919 82.0737 34.2775L81.9313 34.2026C82.5008 33.169 82.918 32.6389 83.3446 32.6389M83.972 31.7162C83.7253 31.7162 83.5719 31.5569 83.5719 31.2991C83.5719 30.9963 83.8282 30.7306 84.1039 30.7306C84.3507 30.7306 84.5111 30.8984 84.5111 31.1577C84.5111 31.4604 84.2553 31.7162 83.972 31.7162ZM88.3908 34.1926C88.3908 34.7906 88.2194 35.3966 87.8972 35.9571C87.3751 36.8393 86.6837 37.3144 86.0673 37.3144C85.4508 37.3144 84.8703 36.6485 84.8703 35.6818C84.8703 35.0084 85.1186 34.261 85.5932 33.6046C86.0378 32.9781 86.6837 32.6379 87.2238 32.6379C87.8787 32.6379 88.3903 33.2339 88.3903 34.1926M86.4744 33.3019C86.0378 33.9853 85.8574 34.6107 85.6876 35.1518C85.5067 35.7388 85.4313 36.2119 85.4313 36.4876C85.4313 36.8968 85.6781 37.1436 86.0373 37.1436C86.3495 37.1436 86.6058 36.9437 86.8351 36.5366C87.574 35.1987 87.8502 34.0397 87.8502 33.4737C87.8502 33.0361 87.6209 32.7898 87.2333 32.7898C86.967 32.7898 86.6912 32.9701 86.4739 33.3024M90.3166 33.671C90.3925 33.4343 90.4485 33.2444 90.4485 33.1025C90.4485 32.9022 90.3531 32.7798 90.2212 32.7798C89.8995 32.7798 89.4913 33.4253 88.9403 34.7142L88.7889 34.6672C89.3879 33.3218 89.7951 32.6269 90.2212 32.6269C90.5459 32.6269 90.7807 32.9707 90.7807 33.5097C90.7807 33.8609 90.6763 34.335 90.5149 34.9535C91.1889 33.4153 91.7109 32.6459 92.2235 32.6459C92.5922 32.6459 92.8969 33.0086 92.8969 33.5861C92.8969 34.0317 92.7435 34.4594 92.5657 34.9435C92.233 35.8167 91.9297 36.4127 91.9297 36.8493C91.9297 37.0392 92.0052 37.1351 92.145 37.1351C92.5257 37.1351 92.821 36.5566 93.3705 35.4365L93.5034 35.501C92.9339 36.6985 92.5832 37.3149 92.1376 37.3149C91.7764 37.3149 91.4636 36.9547 91.4636 36.4027C91.4636 36.11 91.5396 35.7118 91.7104 35.2937L92.2599 33.9648C92.4128 33.6056 92.4688 33.3029 92.4688 33.141C92.4688 32.9117 92.3843 32.8073 92.214 32.8073C91.6345 32.8073 90.8467 34.2695 89.8215 37.2H89.1401L90.3171 33.671H90.3166ZM9.36449 29.2728V29.0635C8.39332 29.0635 7.75387 29.3478 7.41117 29.5756C5.88847 30.5917 5.40888 32.6624 5.40888 34.1042C5.40888 35.5459 5.88847 37.6147 7.41117 38.6298C7.75387 38.8591 8.37384 39.1424 9.36449 39.1424V38.934C8.4218 38.9071 7.79534 38.5459 7.43964 38.0048C7.019 37.3654 6.84915 35.9961 6.84915 34.1037C6.84915 32.2113 7.019 30.8395 7.43964 30.2005C7.79584 29.659 8.4218 29.2978 9.36449 29.2723M2.44792 29.5746C2.10571 29.3473 1.46776 29.0625 0.496094 29.0625V29.2718C1.43879 29.2973 2.06375 29.6585 2.42144 30.2C2.84208 30.839 3.00994 32.2093 3.00994 34.1032C3.00994 35.9971 2.84208 37.3649 2.42144 38.0043C2.06375 38.5454 1.43879 38.9066 0.496094 38.9335V39.1419C1.48575 39.1419 2.10571 38.8586 2.44792 38.6293C3.97012 37.6142 4.4502 35.5434 4.4502 34.1037C4.4502 32.6639 3.97012 30.5912 2.44792 29.5751" fill="white"/>
<path id="Vector_2" d="M93.5028 23.8008H0.497559V24.116H93.5028V23.8008Z" fill="white"/>
</g>
<g id="Clip path group">
<mask id="mask0_1784_10" style="mask-type:luminance" maskUnits="userSpaceOnUse" x="17" y="0" width="60" height="15">
<g id="clippath-1">
<path id="Vector_3" d="M36.0772 0.572735V2.21283H40.3596C42.1645 2.21283 43.3665 3.08758 43.3665 4.72817C43.3665 6.36877 42.1825 7.24302 40.3596 7.24302H37.9366C36.9095 7.24302 36.0772 8.0748 36.0772 9.10192V13.9668H37.9366V9.21683C37.9366 9.03248 38.086 8.88261 38.2699 8.88261H40.5599L43.6947 13.9668H45.8818L42.5287 8.57288C44.1508 7.98988 45.2439 6.6775 45.2439 4.72817C45.2439 2.04897 43.1846 0.572735 40.5234 0.572735H36.0772ZM51.5115 0.572735V13.9668H59.7484V12.3087H53.3699V0.572735H51.5115ZM70.1715 3.42629L72.486 9.61149H67.857L70.1715 3.42629ZM69.1654 1.23267L63.9763 13.9668H65.9621L67.1656 11.2336H73.1789L74.3814 13.9668H76.3607V13.9493L71.1791 1.23267C70.9948 0.781556 70.5842 0.555749 70.172 0.555749C69.7599 0.555749 69.3497 0.781556 69.1659 1.23267M19.457 7.27899C19.457 4.25408 21.4792 2.04897 24.3228 2.04897C27.1664 2.04897 29.1886 4.25408 29.1886 7.27899C29.1886 10.3039 27.1659 12.491 24.3228 12.491C21.4797 12.491 19.457 10.3039 19.457 7.27899ZM17.5801 7.27899C17.5801 11.2881 20.4232 14.204 24.3228 14.204C28.2225 14.204 31.0835 11.2881 31.0835 7.27899C31.0835 3.26992 28.2035 0.335938 24.3223 0.335938C20.4411 0.335938 17.5796 3.28841 17.5796 7.27899" fill="white"/>
</g>
</mask>
<g mask="url(#mask0_1784_10)">
<path id="Vector_4" d="M76.3727 0.324219H17.5796V14.2063H76.3727V0.324219Z" fill="white"/>
</g>
</g>
</g>
</g>
</svg>
